<svg id="visual" viewBox="0 0 900 600" width="900" height="600" xmlns="http://www.w3.org/2000/svg" xmlns:xlink="http://www.w3.org/1999/xlink" version="1.1"><g stroke-width="1" stroke-linejoin="bevel"><path d="M364 340L282 378L337 448Z" fill="#007bff" stroke="#007bff"></path><path d="M282 378L302 445L337 448Z" fill="#1085ff" stroke="#1085ff"></path><path d="M282 378L250 420L302 445Z" fill="#48a0ff" stroke="#48a0ff"></path><path d="M250 420L299 477L302 445Z" fill="#3897ff" stroke="#3897ff"></path><path d="M302 445L299 477L337 448Z" fill="#48a0ff" stroke="#48a0ff"></path><path d="M364 340L299 255L282 378Z" fill="#0071ff" stroke="#0071ff"></path><path d="M282 378L167 320L250 420Z" fill="#0071ff" stroke="#0071ff"></path><path d="M299 255L167 320L282 378Z" fill="#84c1ff" stroke="#84c1ff"></path><path d="M376 600L510 489L337 448Z" fill="#75b9ff" stroke="#75b9ff"></path><path d="M337 448L510 489L364 340Z" fill="#58a8ff" stroke="#58a8ff"></path><path d="M406 160L362 161L299 255Z" fill="#1085ff" stroke="#1085ff"></path><path d="M294 600L317 598L299 477Z" fill="#67b1ff" stroke="#67b1ff"></path><path d="M299 477L376 600L337 448Z" fill="#007bff" stroke="#007bff"></path><path d="M294 600L299 477L231 600Z" fill="#58a8ff" stroke="#58a8ff"></path><path d="M317 598L376 600L299 477Z" fill="#48a0ff" stroke="#48a0ff"></path><path d="M231 600L299 477L250 420Z" fill="#268eff" stroke="#268eff"></path><path d="M317 598L294 600L376 600Z" fill="#84c1ff" stroke="#84c1ff"></path><path d="M596 581L540 477L510 489Z" fill="#1085ff" stroke="#1085ff"></path><path d="M510 489L540 477L364 340Z" fill="#3897ff" stroke="#3897ff"></path><path d="M406 160L299 255L364 340Z" fill="#67b1ff" stroke="#67b1ff"></path><path d="M299 255L168 220L167 320Z" fill="#007bff" stroke="#007bff"></path><path d="M168 600L231 600L250 420Z" fill="#58a8ff" stroke="#58a8ff"></path><path d="M566 279L406 160L364 340Z" fill="#67b1ff" stroke="#67b1ff"></path><path d="M271 121L168 220L299 255Z" fill="#268eff" stroke="#268eff"></path><path d="M540 477L566 279L364 340Z" fill="#3897ff" stroke="#3897ff"></path><path d="M376 600L489 600L510 489Z" fill="#67b1ff" stroke="#67b1ff"></path><path d="M362 161L302 134L299 255Z" fill="#1085ff" stroke="#1085ff"></path><path d="M319 127L302 134L362 161Z" fill="#58a8ff" stroke="#58a8ff"></path><path d="M406 160L319 127L362 161Z" fill="#58a8ff" stroke="#58a8ff"></path><path d="M34 492L168 600L250 420Z" fill="#58a8ff" stroke="#58a8ff"></path><path d="M40 255L66 394L167 320Z" fill="#268eff" stroke="#268eff"></path><path d="M167 320L66 394L250 420Z" fill="#3897ff" stroke="#3897ff"></path><path d="M302 134L271 121L299 255Z" fill="#58a8ff" stroke="#58a8ff"></path><path d="M319 127L271 121L302 134Z" fill="#58a8ff" stroke="#58a8ff"></path><path d="M632 538L623 462L540 477Z" fill="#0071ff" stroke="#0071ff"></path><path d="M540 477L623 462L566 279Z" fill="#0071ff" stroke="#0071ff"></path><path d="M638 306L589 226L566 279Z" fill="#58a8ff" stroke="#58a8ff"></path><path d="M566 279L589 226L406 160Z" fill="#0071ff" stroke="#0071ff"></path><path d="M406 160L327 1L319 127Z" fill="#75b9ff" stroke="#75b9ff"></path><path d="M656 336L638 306L566 279Z" fill="#0071ff" stroke="#0071ff"></path><path d="M66 394L34 492L250 420Z" fill="#48a0ff" stroke="#48a0ff"></path><path d="M489 600L596 581L510 489Z" fill="#0071ff" stroke="#0071ff"></path><path d="M805 421L656 336L623 462Z" fill="#58a8ff" stroke="#58a8ff"></path><path d="M623 462L656 336L566 279Z" fill="#3897ff" stroke="#3897ff"></path><path d="M10 216L40 255L168 220Z" fill="#48a0ff" stroke="#48a0ff"></path><path d="M168 220L40 255L167 320Z" fill="#58a8ff" stroke="#58a8ff"></path><path d="M66 394L0 464L34 492Z" fill="#58a8ff" stroke="#58a8ff"></path><path d="M596 581L632 538L540 477Z" fill="#67b1ff" stroke="#67b1ff"></path><path d="M0 292L0 464L66 394Z" fill="#3897ff" stroke="#3897ff"></path><path d="M40 255L0 292L66 394Z" fill="#75b9ff" stroke="#75b9ff"></path><path d="M0 121L10 216L168 220Z" fill="#1085ff" stroke="#1085ff"></path><path d="M40 255L10 216L0 292Z" fill="#0071ff" stroke="#0071ff"></path><path d="M0 464L0 556L34 492Z" fill="#58a8ff" stroke="#58a8ff"></path><path d="M34 492L0 556L168 600Z" fill="#3897ff" stroke="#3897ff"></path><path d="M482 0L327 1L406 160Z" fill="#84c1ff" stroke="#84c1ff"></path><path d="M319 127L327 1L271 121Z" fill="#67b1ff" stroke="#67b1ff"></path><path d="M271 121L163 5L168 220Z" fill="#84c1ff" stroke="#84c1ff"></path><path d="M0 556L0 600L168 600Z" fill="#007bff" stroke="#007bff"></path><path d="M327 1L245 0L271 121Z" fill="#58a8ff" stroke="#58a8ff"></path><path d="M245 0L229 0L271 121Z" fill="#268eff" stroke="#268eff"></path><path d="M638 306L710 218L589 226Z" fill="#0071ff" stroke="#0071ff"></path><path d="M504 0L482 0L406 160Z" fill="#67b1ff" stroke="#67b1ff"></path><path d="M656 336L710 218L638 306Z" fill="#48a0ff" stroke="#48a0ff"></path><path d="M805 421L710 218L656 336Z" fill="#67b1ff" stroke="#67b1ff"></path><path d="M596 581L697 600L632 538Z" fill="#007bff" stroke="#007bff"></path><path d="M632 538L805 421L623 462Z" fill="#268eff" stroke="#268eff"></path><path d="M489 600L697 600L596 581Z" fill="#67b1ff" stroke="#67b1ff"></path><path d="M900 276L713 211L710 218Z" fill="#268eff" stroke="#268eff"></path><path d="M710 218L713 211L589 226Z" fill="#0071ff" stroke="#0071ff"></path><path d="M504 0L406 160L623 57Z" fill="#84c1ff" stroke="#84c1ff"></path><path d="M327 1L482 0L245 0Z" fill="#58a8ff" stroke="#58a8ff"></path><path d="M229 0L163 5L271 121Z" fill="#3897ff" stroke="#3897ff"></path><path d="M697 600L707 600L632 538Z" fill="#75b9ff" stroke="#75b9ff"></path><path d="M623 57L406 160L589 226Z" fill="#84c1ff" stroke="#84c1ff"></path><path d="M713 211L664 111L589 226Z" fill="#75b9ff" stroke="#75b9ff"></path><path d="M145 0L0 121L168 220Z" fill="#75b9ff" stroke="#75b9ff"></path><path d="M10 216L0 121L0 292Z" fill="#75b9ff" stroke="#75b9ff"></path><path d="M229 0L145 0L163 5Z" fill="#007bff" stroke="#007bff"></path><path d="M163 5L145 0L168 220Z" fill="#58a8ff" stroke="#58a8ff"></path><path d="M664 111L623 57L589 226Z" fill="#3897ff" stroke="#3897ff"></path><path d="M713 211L723 163L664 111Z" fill="#1085ff" stroke="#1085ff"></path><path d="M664 111L745 0L623 57Z" fill="#268eff" stroke="#268eff"></path><path d="M900 193L723 163L713 211Z" fill="#84c1ff" stroke="#84c1ff"></path><path d="M145 0L0 91L0 121Z" fill="#268eff" stroke="#268eff"></path><path d="M723 163L704 123L664 111Z" fill="#1085ff" stroke="#1085ff"></path><path d="M707 600L805 421L632 538Z" fill="#58a8ff" stroke="#58a8ff"></path><path d="M610 0L599 0L623 57Z" fill="#67b1ff" stroke="#67b1ff"></path><path d="M623 57L599 0L504 0Z" fill="#0066ff" stroke="#0066ff"></path><path d="M745 0L610 0L623 57Z" fill="#268eff" stroke="#268eff"></path><path d="M145 0L0 0L0 91Z" fill="#0066ff" stroke="#0066ff"></path><path d="M723 163L772 60L704 123Z" fill="#007bff" stroke="#007bff"></path><path d="M704 123L745 0L664 111Z" fill="#007bff" stroke="#007bff"></path><path d="M794 50L772 60L900 167Z" fill="#007bff" stroke="#007bff"></path><path d="M707 600L859 600L805 421Z" fill="#268eff" stroke="#268eff"></path><path d="M805 421L900 276L710 218Z" fill="#48a0ff" stroke="#48a0ff"></path><path d="M900 499L900 438L805 421Z" fill="#75b9ff" stroke="#75b9ff"></path><path d="M772 60L745 0L704 123Z" fill="#268eff" stroke="#268eff"></path><path d="M900 167L772 60L723 163Z" fill="#3897ff" stroke="#3897ff"></path><path d="M772 60L794 50L745 0Z" fill="#0066ff" stroke="#0066ff"></path><path d="M859 600L900 499L805 421Z" fill="#1085ff" stroke="#1085ff"></path><path d="M900 438L900 276L805 421Z" fill="#0071ff" stroke="#0071ff"></path><path d="M859 600L882 584L900 499Z" fill="#48a0ff" stroke="#48a0ff"></path><path d="M900 276L900 193L713 211Z" fill="#007bff" stroke="#007bff"></path><path d="M859 600L900 600L882 584Z" fill="#58a8ff" stroke="#58a8ff"></path><path d="M882 584L900 600L900 499Z" fill="#268eff" stroke="#268eff"></path><path d="M900 193L900 167L723 163Z" fill="#58a8ff" stroke="#58a8ff"></path><path d="M900 167L900 0L794 50Z" fill="#84c1ff" stroke="#84c1ff"></path><path d="M794 50L900 0L745 0Z" fill="#1085ff" stroke="#1085ff"></path></g></svg>