<svg id="visual" viewBox="0 0 1800 1200" width="1800" height="1200" xmlns="http://www.w3.org/2000/svg" xmlns:xlink="http://www.w3.org/1999/xlink" version="1.1"><g transform="translate(894.144487297951 458.1774529097645)"><path d="M246.8 -397C338.4 -374.7 443.7 -345.9 527 -278.6C610.4 -211.3 671.7 -105.7 649.3 -12.9C626.9 79.8 520.9 159.7 448.6 246C376.2 332.3 337.6 425.1 268.5 517.5C199.3 609.9 99.7 702 -7.6 715.1C-114.8 728.2 -229.7 662.5 -306.5 574.5C-383.2 486.5 -422 376.2 -441.2 276.8C-460.5 177.3 -460.2 88.7 -513.4 -30.7C-566.5 -150 -672.9 -300 -633.8 -365C-594.6 -429.9 -409.8 -409.8 -279.9 -410C-150 -410.1 -75 -430.6 1.3 -432.9C77.7 -435.2 155.3 -419.4 246.8 -397" fill="#0066FF"></path></g></svg>