<svg id="visual" viewBox="0 0 900 600" width="900" height="600" xmlns="http://www.w3.org/2000/svg" xmlns:xlink="http://www.w3.org/1999/xlink" version="1.1"><path d="M0 273L30 283.7C60 294.3 120 315.7 180 329.2C240 342.7 300 348.3 360 332.3C420 316.3 480 278.7 540 282C600 285.3 660 329.7 720 348.7C780 367.7 840 361.3 870 358.2L900 355L900 0L870 0C840 0 780 0 720 0C660 0 600 0 540 0C480 0 420 0 360 0C300 0 240 0 180 0C120 0 60 0 30 0L0 0Z" fill="#4FACF7" stroke-linecap="round" stroke-linejoin="miter"></path></svg>