<svg id="visual" viewBox="0 0 960 540" width="960" height="540" xmlns="http://www.w3.org/2000/svg" xmlns:xlink="http://www.w3.org/1999/xlink" version="1.1"><rect x="0" y="0" width="960" height="540" fill="#001220"></rect><path d="M0 316L22.8 323.7C45.7 331.3 91.3 346.7 137 360.3C182.7 374 228.3 386 274 380.7C319.7 375.3 365.3 352.7 411.2 349.3C457 346 503 362 548.8 369.2C594.7 376.3 640.3 374.7 686 378.5C731.7 382.3 777.3 391.7 823 383.7C868.7 375.7 914.3 350.3 937.2 337.7L960 325L960 541L937.2 541C914.3 541 868.7 541 823 541C777.3 541 731.7 541 686 541C640.3 541 594.7 541 548.8 541C503 541 457 541 411.2 541C365.3 541 319.7 541 274 541C228.3 541 182.7 541 137 541C91.3 541 45.7 541 22.8 541L0 541Z" fill="#001122"></path><path d="M0 422L22.8 420.5C45.7 419 91.3 416 137 407.5C182.7 399 228.3 385 274 379.5C319.7 374 365.3 377 411.2 384.3C457 391.7 503 403.3 548.8 409.5C594.7 415.7 640.3 416.3 686 408.5C731.7 400.7 777.3 384.3 823 378.7C868.7 373 914.3 378 937.2 380.5L960 383L960 541L937.2 541C914.3 541 868.7 541 823 541C777.3 541 731.7 541 686 541C640.3 541 594.7 541 548.8 541C503 541 457 541 411.2 541C365.3 541 319.7 541 274 541C228.3 541 182.7 541 137 541C91.3 541 45.7 541 22.8 541L0 541Z" fill="#01172d"></path><path d="M0 438L22.8 433.5C45.7 429 91.3 420 137 414.2C182.7 408.3 228.3 405.7 274 413.2C319.7 420.7 365.3 438.3 411.2 444.5C457 450.7 503 445.3 548.8 442.3C594.7 439.3 640.3 438.7 686 435.5C731.7 432.3 777.3 426.7 823 420.5C868.7 414.3 914.3 407.7 937.2 404.3L960 401L960 541L937.2 541C914.3 541 868.7 541 823 541C777.3 541 731.7 541 686 541C640.3 541 594.7 541 548.8 541C503 541 457 541 411.2 541C365.3 541 319.7 541 274 541C228.3 541 182.7 541 137 541C91.3 541 45.7 541 22.8 541L0 541Z" fill="#001d39"></path><path d="M0 452L22.8 454.2C45.7 456.3 91.3 460.7 137 465.8C182.7 471 228.3 477 274 473.3C319.7 469.7 365.3 456.3 411.2 452.3C457 448.3 503 453.7 548.8 456.2C594.7 458.7 640.3 458.3 686 455.2C731.7 452 777.3 446 823 442.3C868.7 438.7 914.3 437.3 937.2 436.7L960 436L960 541L937.2 541C914.3 541 868.7 541 823 541C777.3 541 731.7 541 686 541C640.3 541 594.7 541 548.8 541C503 541 457 541 411.2 541C365.3 541 319.7 541 274 541C228.3 541 182.7 541 137 541C91.3 541 45.7 541 22.8 541L0 541Z" fill="#002345"></path><path d="M0 473L22.8 473.5C45.7 474 91.3 475 137 474.8C182.7 474.7 228.3 473.3 274 474C319.7 474.7 365.3 477.3 411.2 481C457 484.7 503 489.3 548.8 495.3C594.7 501.3 640.3 508.7 686 505C731.7 501.3 777.3 486.7 823 483.8C868.7 481 914.3 490 937.2 494.5L960 499L960 541L937.2 541C914.3 541 868.7 541 823 541C777.3 541 731.7 541 686 541C640.3 541 594.7 541 548.8 541C503 541 457 541 411.2 541C365.3 541 319.7 541 274 541C228.3 541 182.7 541 137 541C91.3 541 45.7 541 22.8 541L0 541Z" fill="#002851"></path></svg>