<svg id="visual" viewBox="0 0 960 540" width="960" height="540" xmlns="http://www.w3.org/2000/svg" xmlns:xlink="http://www.w3.org/1999/xlink" version="1.1"><rect x="0" y="0" width="960" height="540" fill="#f1f1f1"></rect><defs><linearGradient id="grad1_0" x1="43.8%" y1="100%" x2="100%" y2="0%"><stop offset="14.444444444444446%" stop-color="#1e8dd9" stop-opacity="1"></stop><stop offset="85.55555555555554%" stop-color="#1e8dd9" stop-opacity="1"></stop></linearGradient></defs><defs><linearGradient id="grad1_1" x1="43.8%" y1="100%" x2="100%" y2="0%"><stop offset="14.444444444444446%" stop-color="#1e8dd9" stop-opacity="1"></stop><stop offset="85.55555555555554%" stop-color="#9ebde6" stop-opacity="1"></stop></linearGradient></defs><defs><linearGradient id="grad1_2" x1="43.8%" y1="100%" x2="100%" y2="0%"><stop offset="14.444444444444446%" stop-color="#f1f1f1" stop-opacity="1"></stop><stop offset="85.55555555555554%" stop-color="#9ebde6" stop-opacity="1"></stop></linearGradient></defs><defs><linearGradient id="grad2_0" x1="0%" y1="100%" x2="56.3%" y2="0%"><stop offset="14.444444444444446%" stop-color="#1e8dd9" stop-opacity="1"></stop><stop offset="85.55555555555554%" stop-color="#1e8dd9" stop-opacity="1"></stop></linearGradient></defs><defs><linearGradient id="grad2_1" x1="0%" y1="100%" x2="56.3%" y2="0%"><stop offset="14.444444444444446%" stop-color="#9ebde6" stop-opacity="1"></stop><stop offset="85.55555555555554%" stop-color="#1e8dd9" stop-opacity="1"></stop></linearGradient></defs><defs><linearGradient id="grad2_2" x1="0%" y1="100%" x2="56.3%" y2="0%"><stop offset="14.444444444444446%" stop-color="#9ebde6" stop-opacity="1"></stop><stop offset="85.55555555555554%" stop-color="#f1f1f1" stop-opacity="1"></stop></linearGradient></defs><g transform="translate(960, 540)"><path d="M-295 0C-300.6 -35.2 -306.3 -70.4 -292.9 -95.2C-279.6 -120 -247.3 -134.5 -234.6 -170.5C-222 -206.4 -229 -263.9 -206.3 -284C-183.6 -304 -131.1 -286.7 -91.8 -282.5C-52.4 -278.2 -26.2 -287.1 0 -296L0 0Z" fill="#c9d7ec"></path><path d="M-196.7 0C-200.4 -23.5 -204.2 -46.9 -195.3 -63.5C-186.4 -80 -164.8 -89.7 -156.4 -113.6C-148 -137.6 -152.7 -175.9 -137.5 -189.3C-122.4 -202.7 -87.4 -191.1 -61.2 -188.3C-35 -185.5 -17.5 -191.4 0 -197.3L0 0Z" fill="#6ea5e0"></path><path d="M-98.3 0C-100.2 -11.7 -102.1 -23.5 -97.6 -31.7C-93.2 -40 -82.4 -44.8 -78.2 -56.8C-74 -68.8 -76.3 -88 -68.8 -94.7C-61.2 -101.3 -43.7 -95.6 -30.6 -94.2C-17.5 -92.7 -8.7 -95.7 0 -98.7L0 0Z" fill="#1e8dd9"></path></g><g transform="translate(0, 0)"><path d="M340 0C336 35.7 332 71.4 315.8 102.6C299.5 133.8 271 160.5 242.7 176.3C214.4 192.2 186.2 197.2 166.3 229C146.4 260.7 134.8 319.2 108.5 333.8C82.1 348.5 41.1 319.2 0 290L0 0Z" fill="#c9d7ec"></path><path d="M226.7 0C224 23.8 221.3 47.6 210.5 68.4C199.7 89.2 180.7 107 161.8 117.6C142.9 128.1 124.2 131.5 110.9 152.6C97.6 173.8 89.9 212.8 72.3 222.5C54.7 232.3 27.4 212.8 0 193.3L0 0Z" fill="#6ea5e0"></path><path d="M113.3 0C112 11.9 110.7 23.8 105.3 34.2C99.8 44.6 90.3 53.5 80.9 58.8C71.5 64.1 62.1 65.7 55.4 76.3C48.8 86.9 44.9 106.4 36.2 111.3C27.4 116.2 13.7 106.4 0 96.7L0 0Z" fill="#1e8dd9"></path></g></svg>